<svg width="30" height="24" viewBox="0 0 30 24" fill="none" xmlns="http://www.w3.org/2000/svg">
<path fill-rule="evenodd" clip-rule="evenodd" d="M15.3755 0.100098C12.3128 0.100098 9.37556 1.31674 7.20993 3.48237C5.46814 5.22416 4.34023 7.46507 3.96546 9.86893L2.46029 8.86302C2.00111 8.55615 1.3801 8.67962 1.07322 9.1388C0.766352 9.59798 0.889823 10.219 1.349 10.5259L4.27201 12.4793C4.6007 12.699 5.02795 12.7044 5.36209 12.4931L8.45147 10.5397C8.91827 10.2445 9.0574 9.6268 8.76224 9.16001C8.46708 8.69321 7.84939 8.55407 7.3826 8.84923L6.02711 9.70633C6.40274 7.8979 7.29836 6.22237 8.62414 4.89658C10.4147 3.10602 12.8432 2.1001 15.3755 2.1001C17.9077 2.1001 20.3362 3.10602 22.1268 4.89658C22.5173 5.28711 23.1505 5.28711 23.541 4.89658C23.9315 4.50606 23.9315 3.8729 23.541 3.48237C21.3754 1.31674 18.4381 0.100098 15.3755 0.100098ZM14.923 23.1957C17.9857 23.1957 20.9229 21.979 23.0886 19.8134C24.7291 18.1728 25.8251 16.0894 26.2601 13.8442L27.4499 15.0282C27.8414 15.4178 28.4746 15.4163 28.8641 15.0248C29.2537 14.6334 29.2522 14.0002 28.8607 13.6106L26.1762 10.9391C25.889 10.6532 25.4576 10.569 25.0839 10.7258L21.9945 12.0223C21.4852 12.2361 21.2456 12.8222 21.4594 13.3314C21.6731 13.8407 22.2592 14.0802 22.7684 13.8665L24.3429 13.2057C24.0197 15.1603 23.0934 16.9801 21.6743 18.3992C19.8838 20.1898 17.4553 21.1957 14.923 21.1957C12.3908 21.1957 9.96228 20.1898 8.17172 18.3992C7.78119 18.0087 7.14803 18.0087 6.7575 18.3992C6.36698 18.7897 6.36698 19.4229 6.7575 19.8134C8.92313 21.979 11.8604 23.1957 14.923 23.1957Z" fill="white"/>
</svg>
