<svg width="65" height="65" viewBox="0 0 65 65" fill="none" xmlns="http://www.w3.org/2000/svg">
<g filter="url(#filter0_d_401_76)">
<path fill-rule="evenodd" clip-rule="evenodd" d="M32.03 54.2332C17.9468 54.2332 6.53003 42.8164 6.53003 28.7332C6.53003 14.6499 17.9468 3.23315 32.03 3.23315C46.1133 3.23315 57.53 14.6499 57.53 28.7332C57.53 42.8164 46.1133 54.2332 32.03 54.2332ZM4.53003 28.7332C4.53003 13.5453 16.8422 1.23315 32.03 1.23315C47.2179 1.23315 59.53 13.5453 59.53 28.7332C59.53 43.921 47.2179 56.2332 32.03 56.2332C16.8422 56.2332 4.53003 43.921 4.53003 28.7332ZM32.53 37.2332C31.9777 37.2332 31.53 36.7854 31.53 36.2332V30.2332H25.53C24.9777 30.2332 24.53 29.7854 24.53 29.2332C24.53 28.6809 24.9777 28.2332 25.53 28.2332H31.53V22.2332C31.53 21.6809 31.9777 21.2332 32.53 21.2332C33.0823 21.2332 33.53 21.6809 33.53 22.2332V28.2332H39.53C40.0823 28.2332 40.53 28.6809 40.53 29.2332C40.53 29.7854 40.0823 30.2332 39.53 30.2332H33.53V36.2332C33.53 36.7854 33.0823 37.2332 32.53 37.2332Z" fill="black"/>
<path d="M31.53 30.2332H32.03C32.03 29.957 31.8062 29.7332 31.53 29.7332V30.2332ZM31.53 28.2332V28.7332C31.8062 28.7332 32.03 28.5093 32.03 28.2332H31.53ZM33.53 22.2332L33.03 22.2332V22.2332H33.53ZM33.53 28.2332H33.03C33.03 28.5093 33.2539 28.7332 33.53 28.7332V28.2332ZM39.53 28.2332L39.53 28.7332L39.53 28.7332L39.53 28.2332ZM40.53 29.2332L40.03 29.2332V29.2332H40.53ZM33.53 30.2332V29.7332C33.2539 29.7332 33.03 29.957 33.03 30.2332H33.53ZM6.03003 28.7332C6.03003 43.0926 17.6706 54.7332 32.03 54.7332V53.7332C18.2229 53.7332 7.03003 42.5403 7.03003 28.7332H6.03003ZM32.03 2.73315C17.6706 2.73315 6.03003 14.3738 6.03003 28.7332H7.03003C7.03003 14.926 18.2229 3.73315 32.03 3.73315V2.73315ZM58.03 28.7332C58.03 14.3738 46.3894 2.73315 32.03 2.73315V3.73315C45.8371 3.73315 57.03 14.926 57.03 28.7332H58.03ZM32.03 54.7332C46.3894 54.7332 58.03 43.0926 58.03 28.7332H57.03C57.03 42.5403 45.8371 53.7332 32.03 53.7332V54.7332ZM32.03 0.733154C16.5661 0.733154 4.03003 13.2692 4.03003 28.7332H5.03003C5.03003 13.8215 17.1183 1.73315 32.03 1.73315V0.733154ZM60.03 28.7332C60.03 13.2692 47.494 0.733154 32.03 0.733154V1.73315C46.9417 1.73315 59.03 13.8215 59.03 28.7332H60.03ZM32.03 56.7332C47.494 56.7332 60.03 44.1971 60.03 28.7332H59.03C59.03 43.6448 46.9417 55.7332 32.03 55.7332V56.7332ZM4.03003 28.7332C4.03003 44.1971 16.5661 56.7332 32.03 56.7332V55.7332C17.1183 55.7332 5.03003 43.6448 5.03003 28.7332H4.03003ZM31.03 36.2332C31.03 37.0616 31.7016 37.7332 32.53 37.7332V36.7332C32.2539 36.7332 32.03 36.5093 32.03 36.2332H31.03ZM31.03 30.2332V36.2332H32.03V30.2332H31.03ZM25.53 30.7332H31.53V29.7332H25.53V30.7332ZM24.03 29.2332C24.03 30.0616 24.7016 30.7332 25.53 30.7332V29.7332C25.2539 29.7332 25.03 29.5093 25.03 29.2332H24.03ZM25.53 27.7332C24.7016 27.7332 24.03 28.4047 24.03 29.2332H25.03C25.03 28.957 25.2539 28.7332 25.53 28.7332V27.7332ZM31.53 27.7332H25.53V28.7332H31.53V27.7332ZM31.03 22.2332V28.2332H32.03V22.2332H31.03ZM32.53 20.7332C31.7016 20.7332 31.03 21.4047 31.03 22.2332H32.03C32.03 21.957 32.2539 21.7332 32.53 21.7332V20.7332ZM34.03 22.2332C34.03 21.4047 33.3585 20.7332 32.53 20.7332V21.7332C32.8062 21.7332 33.03 21.957 33.03 22.2332L34.03 22.2332ZM34.03 28.2332V22.2332H33.03V28.2332H34.03ZM39.53 27.7332H33.53V28.7332H39.53V27.7332ZM41.03 29.2332C41.03 28.4047 40.3585 27.7332 39.53 27.7332L39.53 28.7332C39.8062 28.7332 40.03 28.957 40.03 29.2332L41.03 29.2332ZM39.53 30.7332C40.3585 30.7332 41.03 30.0616 41.03 29.2332H40.03C40.03 29.5093 39.8062 29.7332 39.53 29.7332V30.7332ZM33.53 30.7332H39.53V29.7332H33.53V30.7332ZM34.03 36.2332V30.2332H33.03V36.2332H34.03ZM32.53 37.7332C33.3585 37.7332 34.03 37.0616 34.03 36.2332H33.03C33.03 36.5093 32.8062 36.7332 32.53 36.7332V37.7332Z" fill="black"/>
</g>
<defs>
<filter id="filter0_d_401_76" x="0.0300293" y="0.733154" width="64" height="64" filterUnits="userSpaceOnUse" color-interpolation-filters="sRGB">
<feFlood flood-opacity="0" result="BackgroundImageFix"/>
<feColorMatrix in="SourceAlpha" type="matrix" values="0 0 0 0 0 0 0 0 0 0 0 0 0 0 0 0 0 0 127 0" result="hardAlpha"/>
<feOffset dy="4"/>
<feGaussianBlur stdDeviation="2"/>
<feComposite in2="hardAlpha" operator="out"/>
<feColorMatrix type="matrix" values="0 0 0 0 0 0 0 0 0 0 0 0 0 0 0 0 0 0 0.25 0"/>
<feBlend mode="normal" in2="BackgroundImageFix" result="effect1_dropShadow_401_76"/>
<feBlend mode="normal" in="SourceGraphic" in2="effect1_dropShadow_401_76" result="shape"/>
</filter>
</defs>
</svg>
